<?xml version="1.0" standalone="no"?>
<!DOCTYPE svg PUBLIC "-//W3C//DTD SVG 20010904//EN"
 "http://www.w3.org/TR/2001/REC-SVG-20010904/DTD/svg10.dtd">
<svg version="1.0" xmlns="http://www.w3.org/2000/svg"
 width="1408.000000pt" height="768.000000pt" viewBox="0 0 1408.000000 768.000000"
 preserveAspectRatio="xMidYMid meet">

<g transform="translate(0.000000,768.000000) scale(0.100000,-0.100000)"
fill="#000000" stroke="none">
<path d="M6875 6700 c-526 -31 -1046 -278 -1427 -678 -343 -361 -560 -827
-609 -1309 -14 -145 -6 -457 15 -578 45 -255 135 -508 281 -790 46 -88 103
-191 128 -229 l46 -70 4 815 4 814 26 125 c33 151 55 223 114 360 96 222 217
395 396 567 460 441 1116 593 1714 397 265 -87 490 -228 698 -438 199 -200
325 -402 409 -656 75 -225 89 -312 90 -550 1 -225 -13 -320 -76 -520 -58 -184
-192 -430 -311 -570 -154 -183 -372 -360 -548 -446 -328 -160 -654 -215 -1004
-169 -64 9 -120 13 -126 10 -5 -4 -9 -2 -9 3 0 6 -16 13 -35 16 -31 6 -229 71
-277 91 -17 7 -18 -26 -18 -604 l0 -612 102 -107 c57 -59 210 -215 341 -347
l237 -240 208 210 c467 473 733 772 1058 1185 337 429 633 913 777 1271 92
227 137 410 163 651 32 311 -15 637 -143 981 -13 37 -29 65 -34 62 -5 -4 -6 0
-3 8 8 22 -110 248 -197 376 -90 134 -197 263 -210 255 -5 -3 -8 -1 -7 4 4 14
-111 132 -207 212 -352 294 -766 462 -1230 500 -136 11 -154 11 -340 0z"/>
<path d="M6845 5829 c-123 -19 -289 -72 -401 -129 -148 -75 -259 -157 -374
-276 -223 -230 -349 -505 -379 -826 -6 -58 -10 -538 -11 -1104 l0 -1002 62
-79 c35 -43 76 -96 93 -118 30 -40 276 -338 300 -363 10 -11 13 82 13 485 0
274 1 621 1 772 l1 275 28 -26 c123 -114 352 -226 561 -275 104 -24 135 -27
306 -28 203 0 241 5 405 57 343 108 636 360 800 688 42 83 90 210 90 237 0 8
-5 11 -12 8 -7 -4 -5 0 5 8 26 22 45 104 57 248 30 371 -88 720 -342 1009 -77
88 -227 210 -336 273 -95 56 -235 112 -352 142 -90 23 -130 27 -280 30 -96 2
-202 0 -235 -6z m325 -429 c351 -56 636 -314 727 -658 33 -126 37 -318 9 -427
-90 -341 -351 -595 -691 -670 -107 -24 -310 -17 -410 15 -271 86 -486 280
-584 528 -80 202 -89 358 -33 567 113 424 553 712 982 645z"/>
</g>
</svg>
